<?xml version="1.0" encoding="UTF-8" standalone="no"?>
<svg
   sodipodi:docname="lander-bg.svg"
   inkscape:version="1.3-dev (9bb0dc3846, 2022-07-20)"
   id="svg8"
   version="1.1"
   viewBox="0 0 4096 1645.5217"
   height="1645.5217"
   width="4096"
   xml:space="preserve"
   xmlns:inkscape="http://www.inkscape.org/namespaces/inkscape"
   xmlns:sodipodi="http://sodipodi.sourceforge.net/DTD/sodipodi-0.dtd"
   xmlns="http://www.w3.org/2000/svg"
   xmlns:svg="http://www.w3.org/2000/svg"
   xmlns:rdf="http://www.w3.org/1999/02/22-rdf-syntax-ns#"
   xmlns:cc="http://creativecommons.org/ns#"
   xmlns:dc="http://purl.org/dc/elements/1.1/"><defs
     id="defs2" /><sodipodi:namedview
     inkscape:window-maximized="1"
     inkscape:window-y="1"
     inkscape:window-x="37"
     inkscape:window-height="1046"
     inkscape:window-width="2523"
     showborder="false"
     units="px"
     showgrid="false"
     inkscape:document-rotation="0"
     inkscape:current-layer="layer1"
     inkscape:document-units="px"
     inkscape:cy="672.46814"
     inkscape:cx="2076.1994"
     inkscape:zoom="0.27213185"
     inkscape:pageshadow="0"
     inkscape:pageopacity="0.0"
     borderopacity="1.0"
     bordercolor="#666666"
     pagecolor="#ffffff"
     id="base"
     inkscape:showpageshadow="0"
     inkscape:pagecheckerboard="1"
     inkscape:deskcolor="#d1d1d1"
     showguides="true" /><metadata
     id="metadata5"><rdf:RDF><cc:Work
         rdf:about=""><dc:format>image/svg+xml</dc:format><dc:type
           rdf:resource="http://purl.org/dc/dcmitype/StillImage" /></cc:Work></rdf:RDF></metadata><g
     id="layer1"
     inkscape:groupmode="layer"
     inkscape:label="Layer 1"
     transform="translate(5.090716e-7,-62.479913)"><path
       id="rect21"
       style="fill:#1a1a1a;stroke:#e6e6e6;stroke-width:0;stroke-linecap:round"
       d="m 4095.9999,1465.109 -12.209,-14.8769 -10.5312,-6.3164 -15.4668,-14.2891 -2.295,-15.418 -24.5703,-60.5215 h -14.9414 l -15.2812,9.1114 -15.8946,4.7695 -16.1484,20.3789 -11.9824,8.1621 -10.0918,27.5469 h -8.9824 l -6.4336,27.5469 -18,27.0937 -7.9317,41.332 h -129.3359 l -16.9844,-14.1171 -13.9316,-12.3496 -9.7754,-14.4532 -7.6992,-26.3828 h -14.7461 l -12.336,-15.0078 -4.4472,-13.0059 v -17.789 l -12.2071,-38.7637 -2.8906,-43.0957 -16.6387,-14.0547 -9.0664,-13.3242 -6.8183,-28.166 -12.0293,-14.4102 -4.3184,-12.1933 h -15.3613 v -17.334 l -13.1309,-38.5762 -3.1621,-42.3242 h -15.3672 l -14.164,-17.0742 -2.5918,-11.875 -11.7012,-13.541 -4.0684,-14.8594 -15.9277,-10.1563 -17.1914,-3.955 -21.8223,-61.5098 -25.1953,-15.49809 -7.7519,-26.73043 -11.25,-14.1797 -12.1074,-6.3535 h -8.2715 l -4.5059,-14.3282 h -15.8926 l -4.1894,-14.664 h -14.7891 l -10.4433,14.1035 -4.5411,14.4727 -15.125,7.2421 -12.2949,32.39263 -4.1367,24.86529 v 33.0371 l -7.2539,43.541 -8.1367,26.3535 -17.0801,17.7461 -15.3457,24.2168 -15.9297,14.3613 h -17.2441 l -10.8789,13.1133 -4.0977,13.1387 -8.6582,15.0215 -15.4883,13.666 -7.6562,27.3769 -14.793,28.5508 -16.4805,20.4727 -16.58,16.1425 -15.7735,6.8203 -9.7558,30.5782 -6.7344,31.3261 -17.3809,6.8633 -6.5293,13.0098 -14.7988,14.209 -9.082,13.7285 -14.3555,14.3047 -19.2969,14.8144 h -32.1484 l -16.2383,-14.4004 v -16.6445 l -10.6211,-37.3594 -7.0078,-44.5957 -21.6191,-12.9238 -8.9336,-28.582 -9.9786,-13.1934 -12.5058,-6.5742 -10.8711,6.7773 -12.4043,27.92 h -18.2168 l -13.416,-15.8125 -2.2559,-13.2266 -12.8828,-14.623 -4.543,-13.6875 -11.6699,-13.6055 -3.3828,-13.0664 -14.8183,-10.4668 -15.1739,-3.0196 h -17.4297 l -12.1347,11.5235 -17.6641,3.1523 -16.2832,21.4512 -15.8789,5.123 -8.8242,15.8711 -14.6895,12.2813 -7.2968,13.5586 -18.8282,15.7168 -15.6367,16.9707 -12.6855,23.8379 -16.6875,13.7383 h -18.5996 l -17.8145,-14.0176 -8.4453,-14.9004 -4.8828,-27.1172 -25.3106,-14.0605 -8.2129,-28.875 v -14.1446 l -11.1093,-39.3652 -4.8536,-42.4883 h -8.5253 l -3.9922,-14.4512 h -15.1778 l -3.5371,-13.1132 h -17.1406 l -16.5488,13.2304 -10.6035,13.7403 -3.5,12.7089 -17.0821,7.9219 -11.5429,33.1074 -3.5957,30.0293 -16.9375,14.3203 h -32.9493 l -15.3047,-14.2714 -15.7265,6.7285 -14.7031,62.3066 h -16.8379 l -11.1172,14.3477 -4.2285,15.0547 -8.9883,14.0547 -15.5957,13.3007 -6.4414,28.8067 h -17.0274 v 25.582 l -7.3672,42.6543 -10.2539,28.6133 h -64.2187 l -29.5879,-10.4981 -33.5176,-3.1347 h -33.7265 l -26.5157,-16.4981 c 0,0 -5.457,-25.6287 -5.457,-26.1543 l -12.209,-14.3515 -10.5312,-6.3164 -15.4668,-14.2891 -2.295,-15.418 -24.5703,-60.5215 h -14.9414 l -15.2812,9.1114 -15.8946,4.7695 -16.1484,20.3789 -11.9824,8.1621 -10.0918,27.5469 h -8.9824 l -6.4336,27.5469 -18,27.0937 -7.9317,41.332 h -129.3359 l -16.9844,-14.1171 -13.9316,-12.3496 -9.7754,-14.4532 -7.6992,-26.3828 h -14.7461 l -12.336,-15.0078 -4.4472,-13.0059 v -17.789 l -12.2071,-38.7637 -2.8906,-43.0957 -16.6387,-14.0547 -9.0664,-13.3242 -6.8183,-28.166 -12.0293,-14.4102 -4.3184,-12.1933 h -15.3613 v -17.334 l -13.1309,-38.5762 -3.1621,-42.3242 h -15.3672 l -14.164,-17.0742 -2.5918,-11.875 -11.7012,-13.541 -4.0684,-14.8594 -15.9277,-10.1563 -17.1914,-3.955 -21.8223,-61.5098 -25.1953,-15.49809 -7.7519,-26.73043 -11.25,-14.1797 -12.1074,-6.3535 h -8.2715 l -4.5059,-14.3282 h -15.8926 l -4.1894,-14.664 h -14.7891 l -10.4433,14.1035 -4.5411,14.4727 -15.125,7.2421 -12.2949,32.39263 -4.1367,24.86529 v 33.0371 l -7.2539,43.541 -8.1367,26.3535 -17.0781,17.7461 -15.3477,24.2168 -15.9297,14.3613 h -17.2441 l -10.8789,13.1133 -4.0977,13.1387 -8.6562,15.0215 -15.4903,13.666 -7.6562,27.3769 -14.793,28.5508 -16.4805,20.4727 -16.58,16.1425 -15.7735,6.8203 -9.7539,30.5782 -6.7363,31.3261 -17.3789,6.8633 -6.5313,13.0098 -14.7988,14.209 -9.082,13.7285 -14.3555,14.3047 -19.2969,14.8144 h -32.14833 l -16.2383,-14.4004 v -16.6445 l -10.62106,-37.3594 -7.00781,-44.5957 -21.61914,-12.9238 -8.93359,-28.582 -9.97852,-13.1934 -12.50586,-6.5742 -10.87109,6.7773 -12.4043,27.92 h -18.2168 l -13.41601,-15.8125 -2.25586,-13.2266 -12.88281,-14.623 -4.54297,-13.6875 -11.66993,-13.6055 -3.38281,-13.0664 -14.81836,-10.4668 -15.17383,-3.0196 h -17.42968 l -12.13477,11.5235 -17.66406,3.1523 -16.2832,21.4512 -15.87891,5.123 -8.82422,15.8711 -14.68945,12.2813 -7.29688,13.5586 -18.82812,15.7168 -15.63672,16.9707 -12.68555,23.8379 -16.6875,13.7383 h -18.59961 l -17.8125,-14.0176 -8.44726,-14.9004 -4.88282,-27.1172 -25.31054,-14.0605 -8.21289,-28.875 v -14.1446 l -11.10938,-39.3652 -4.85351,-42.4883 h -8.52539 l -3.99219,-14.4512 h -15.17774 l -3.53711,-13.1132 H 449.375 l -16.54883,13.2304 -10.60351,13.7403 -3.5,12.7089 -17.08204,7.9219 -11.54296,33.1074 -3.59571,30.0293 -16.9375,14.3203 h -32.94922 l -15.30468,-14.2714 -15.72461,6.7285 -14.70508,62.3066 h -16.83789 l -11.11719,14.3477 -4.22656,15.0547 -8.98828,14.0547 -15.59766,13.3007 -6.44141,28.8067 h -17.02734 v 25.582 l -7.36719,42.6543 -10.2539,28.6133 h -64.21875 l -29.587891,-10.4981 -33.51758,-3.1347 H 31.972657 L 5.457031,1490.7379 0,1467.111 v 240.8906 h 4095.9999 z"
       sodipodi:nodetypes="cccccccccccccccccccccccccccccccccccccccccccccccccccccccccccccccccccccccccccccccccccccccccccccccccccccccccccccccccccccccccccccccccccccccccccccccccccccccccccccccccccccccccccccccccccccccccccccccccccccccccccccccccccccccccccccccccccccccccccccccccccccccccccccccccccccccccccccccccccccccccccccccccccccccccccccccccccccccc" /><g
       id="g1"><ellipse
         style="fill:#e6e6e6;stroke:none;stroke-width:3.99999;paint-order:markers fill stroke"
         id="path7"
         cx="249.88713"
         cy="662.11609"
         rx="1.9036384"
         ry="1.9038534" /><ellipse
         style="fill:#e6e6e6;stroke:none;stroke-width:3.99999;paint-order:markers fill stroke"
         id="circle7"
         cx="667.81622"
         cy="578.8504"
         rx="1.9036384"
         ry="1.9038534" /><ellipse
         style="fill:#e6e6e6;stroke:none;stroke-width:3.99999;paint-order:markers fill stroke"
         id="circle8"
         cx="818.27106"
         cy="437.90091"
         rx="1.9036384"
         ry="1.9038534" /><ellipse
         style="fill:#e6e6e6;stroke:none;stroke-width:3.99999;paint-order:markers fill stroke"
         id="circle9"
         cx="369.51196"
         cy="273.11609"
         rx="1.9036384"
         ry="1.9038534" /><ellipse
         style="fill:#e6e6e6;stroke:none;stroke-width:3.99999;paint-order:markers fill stroke"
         id="circle10"
         cx="273.79391"
         cy="279.08035"
         rx="1.9036384"
         ry="1.9038534" /><ellipse
         style="fill:#e6e6e6;stroke:none;stroke-width:3.99999;paint-order:markers fill stroke"
         id="circle11"
         cx="210.06929"
         cy="311.28616"
         rx="1.9036384"
         ry="1.9038534" /><ellipse
         style="fill:#e6e6e6;stroke:none;stroke-width:3.99999;paint-order:markers fill stroke"
         id="circle13"
         cx="1099.1373"
         cy="157.99115"
         rx="1.9036384"
         ry="1.9038534" /><ellipse
         style="fill:#e6e6e6;stroke:none;stroke-width:3.99999;paint-order:markers fill stroke"
         id="circle14"
         cx="1664.8729"
         cy="64.383766"
         rx="1.9036384"
         ry="1.9038534" /><ellipse
         style="fill:#e6e6e6;stroke:none;stroke-width:3.99999;paint-order:markers fill stroke"
         id="circle15"
         cx="1590.2498"
         cy="285.00684"
         rx="1.9036384"
         ry="1.9038534" /><ellipse
         style="fill:#e6e6e6;stroke:none;stroke-width:3.99999;paint-order:markers fill stroke"
         id="circle16"
         cx="1301.7393"
         cy="348.80795"
         rx="1.9036384"
         ry="1.9038534" /><ellipse
         style="fill:#e6e6e6;stroke:none;stroke-width:3.99999;paint-order:markers fill stroke"
         id="circle17"
         cx="1387.2345"
         cy="693.83881"
         rx="1.9036384"
         ry="1.9038534" /><ellipse
         style="fill:#e6e6e6;stroke:none;stroke-width:3.99999;paint-order:markers fill stroke"
         id="circle18"
         cx="945.87982"
         cy="946.60046"
         rx="1.9036384"
         ry="1.9038534" /><ellipse
         style="fill:#e6e6e6;stroke:none;stroke-width:3.99999;paint-order:markers fill stroke"
         id="circle19"
         cx="1042.8873"
         cy="1045.7587"
         rx="1.9036384"
         ry="1.9038534" /><ellipse
         style="fill:#e6e6e6;stroke:none;stroke-width:3.99999;paint-order:markers fill stroke"
         id="circle20"
         cx="978.88214"
         cy="1195.4518"
         rx="1.9036384"
         ry="1.9038534" /><ellipse
         style="fill:#e6e6e6;stroke:none;stroke-width:3.99999;paint-order:markers fill stroke"
         id="circle21"
         cx="951.50732"
         cy="1241.6521"
         rx="1.9036384"
         ry="1.9038534" /><ellipse
         style="fill:#e6e6e6;stroke:none;stroke-width:3.99999;paint-order:markers fill stroke"
         id="circle22"
         cx="1106.5466"
         cy="1288.0225"
         rx="1.9036384"
         ry="1.9038534" /><ellipse
         style="fill:#e6e6e6;stroke:none;stroke-width:3.99999;paint-order:markers fill stroke"
         id="circle23"
         cx="2025.1705"
         cy="1229.1578"
         rx="1.9036384"
         ry="1.9038534" /><ellipse
         style="fill:#e6e6e6;stroke:none;stroke-width:3.99999;paint-order:markers fill stroke"
         id="circle24"
         cx="1890.2068"
         cy="1115.5469"
         rx="1.9036384"
         ry="1.9038534" /><ellipse
         style="fill:#e6e6e6;stroke:none;stroke-width:3.99999;paint-order:markers fill stroke"
         id="circle25"
         cx="1649.7413"
         cy="1371.7358"
         rx="1.9036384"
         ry="1.9038534" /><ellipse
         style="fill:#e6e6e6;stroke:none;stroke-width:3.99999;paint-order:markers fill stroke"
         id="ellipse33"
         cx="2297.8872"
         cy="662.11609"
         rx="1.9036384"
         ry="1.9038534" /><ellipse
         style="fill:#e6e6e6;stroke:none;stroke-width:3.99999;paint-order:markers fill stroke"
         id="ellipse34"
         cx="2715.8162"
         cy="578.8504"
         rx="1.9036384"
         ry="1.9038534" /><ellipse
         style="fill:#e6e6e6;stroke:none;stroke-width:3.99999;paint-order:markers fill stroke"
         id="ellipse35"
         cx="2866.271"
         cy="437.90091"
         rx="1.9036384"
         ry="1.9038534" /><ellipse
         style="fill:#e6e6e6;stroke:none;stroke-width:3.99999;paint-order:markers fill stroke"
         id="ellipse36"
         cx="2417.512"
         cy="273.11609"
         rx="1.9036384"
         ry="1.9038534" /><ellipse
         style="fill:#e6e6e6;stroke:none;stroke-width:3.99999;paint-order:markers fill stroke"
         id="ellipse37"
         cx="2321.7939"
         cy="279.08035"
         rx="1.9036384"
         ry="1.9038534" /><ellipse
         style="fill:#e6e6e6;stroke:none;stroke-width:3.99999;paint-order:markers fill stroke"
         id="ellipse38"
         cx="2258.0693"
         cy="311.28616"
         rx="1.9036384"
         ry="1.9038534" /><ellipse
         style="fill:#e6e6e6;stroke:none;stroke-width:3.99999;paint-order:markers fill stroke"
         id="ellipse39"
         cx="3147.1372"
         cy="157.99115"
         rx="1.9036384"
         ry="1.9038534" /><ellipse
         style="fill:#e6e6e6;stroke:none;stroke-width:3.99999;paint-order:markers fill stroke"
         id="ellipse40"
         cx="3712.873"
         cy="64.383766"
         rx="1.9036384"
         ry="1.9038534" /><ellipse
         style="fill:#e6e6e6;stroke:none;stroke-width:3.99999;paint-order:markers fill stroke"
         id="ellipse41"
         cx="3638.2498"
         cy="285.00684"
         rx="1.9036384"
         ry="1.9038534" /><ellipse
         style="fill:#e6e6e6;stroke:none;stroke-width:3.99999;paint-order:markers fill stroke"
         id="ellipse42"
         cx="3349.7393"
         cy="348.80795"
         rx="1.9036384"
         ry="1.9038534" /><ellipse
         style="fill:#e6e6e6;stroke:none;stroke-width:3.99999;paint-order:markers fill stroke"
         id="ellipse43"
         cx="3435.2344"
         cy="693.83881"
         rx="1.9036384"
         ry="1.9038534" /><ellipse
         style="fill:#e6e6e6;stroke:none;stroke-width:3.99999;paint-order:markers fill stroke"
         id="ellipse44"
         cx="2993.8799"
         cy="946.60046"
         rx="1.9036384"
         ry="1.9038534" /><ellipse
         style="fill:#e6e6e6;stroke:none;stroke-width:3.99999;paint-order:markers fill stroke"
         id="ellipse45"
         cx="3090.8872"
         cy="1045.7587"
         rx="1.9036384"
         ry="1.9038534" /><ellipse
         style="fill:#e6e6e6;stroke:none;stroke-width:3.99999;paint-order:markers fill stroke"
         id="ellipse46"
         cx="3026.8821"
         cy="1195.4518"
         rx="1.9036384"
         ry="1.9038534" /><ellipse
         style="fill:#e6e6e6;stroke:none;stroke-width:3.99999;paint-order:markers fill stroke"
         id="ellipse47"
         cx="2999.5073"
         cy="1241.6521"
         rx="1.9036384"
         ry="1.9038534" /><ellipse
         style="fill:#e6e6e6;stroke:none;stroke-width:3.99999;paint-order:markers fill stroke"
         id="ellipse48"
         cx="3154.5466"
         cy="1288.0225"
         rx="1.9036384"
         ry="1.9038534" /><ellipse
         style="fill:#e6e6e6;stroke:none;stroke-width:3.99999;paint-order:markers fill stroke"
         id="ellipse49"
         cx="4073.1704"
         cy="1229.1578"
         rx="1.9036384"
         ry="1.9038534" /><ellipse
         style="fill:#e6e6e6;stroke:none;stroke-width:3.99999;paint-order:markers fill stroke"
         id="ellipse50"
         cx="3938.2068"
         cy="1115.5469"
         rx="1.9036384"
         ry="1.9038534" /><ellipse
         style="fill:#e6e6e6;stroke:none;stroke-width:3.99999;paint-order:markers fill stroke"
         id="ellipse51"
         cx="3697.7412"
         cy="1371.7358"
         rx="1.9036384"
         ry="1.9038534" /></g><g
       id="g2"><path
         style="color:#000000;fill:#e6e6e6;stroke-width:0;stroke-linecap:round;stroke-linejoin:miter;stroke-dasharray:none;paint-order:normal"
         d="m 1344.0802,917.69999 -11.629,15.70501 -4.3029,13.71839 -15.0344,7.19659 -12.8192,33.77605 -4.2277,25.39797 v 33.0375 l -7.1812,43.1041 -7.8705,25.4877 -16.7949,17.4571 -15.292,24.1237 -14.7796,13.3274 h -17.4985 l -12.1416,14.6364 -4.1755,13.3853 -8.2498,14.3149 -15.7843,13.9269 -7.8067,27.9262 -14.519,28.013 -16.1809,20.101 -16.0595,15.6385 -16.5111,7.1386 -10.2102,32.0008 -6.4313,29.9157 -16.9542,6.6956 -6.8105,13.5649 -14.6695,14.0861 -9.0983,13.7502 -14.0063,13.9587 -18.3442,14.0833 h -30.01648 l -14.40018,-12.7685 v -15.7252 l -10.68503,-37.5844 -7.19576,-45.7886 -21.83917,-13.0581 -8.75073,-27.9898 -10.68793,-14.1354 -14.59709,-7.6715 -13.08555,8.1552 -11.99099,26.9906 h -14.91851 l -11.99967,-14.147 -2.26152,-13.255 -13.04213,-14.8043 -4.53461,-13.6662 -11.60296,-13.5273 -3.4835,-13.4519 -16.22157,-11.4565 -16.07679,-3.2001 h -18.90584 l -12.35005,11.7259 -17.92422,3.2001 -16.42137,21.6331 -16.10574,5.1925 -9.12426,16.4117 -14.70423,12.2964 -7.29711,13.5591 -18.5352,15.4733 -16.02756,17.3933 -12.58749,23.6517 -15.41078,12.6874 h -16.50824 l -16.55167,-13.0233 -7.90809,-13.95 -5.04426,-28.0043 -25.46166,-14.147 -7.7633,-27.2949 v -14.1411 l -11.15704,-39.5304 -5.12823,-44.8765 h -8.91288 l -3.99314,-14.451 h -15.15885 l -3.53852,-13.1131 h -20.45214 l -17.63754,14.1006 -11.18021,14.4858 -3.28948,11.946 -16.97444,7.8713 -12.06047,34.5986 -3.49798,29.1888 -15.21677,12.8669 h -30.69704 l -15.8596,-14.7927 -18.8798,8.074 -14.51023,61.4821 h -15.94356 l -12.36164,15.954 -4.26534,15.1896 -8.51328,13.31 -16.01307,13.6575 -6.13882,27.4541 h -17.61728 v 28.294 l -7.27973,42.1484 -9.46305,26.4057 h -61.61995 l -29.457683,-10.4488 -34.024173,-3.1827 H 32.820647 L 8.0365745,1489.9584 1.437334,1464.0567 -5.090716e-7,1464.1628 v 243.8388 H 2048 v 0 -246.0771 l -10.2264,-12.8517 -10.7284,-6.435 -14.4755,-13.3708 -2.192,-14.7377 -25.4558,-62.6984 h -17.7535 l -15.6657,9.3395 -16.4387,4.9319 -16.4445,20.7557 -12.3992,8.4447 -9.7035,26.4955 h -9.2661 l -6.8453,29.3163 -18.0343,27.1471 -7.5809,39.51 h -125.8141 l -16.1261,-13.4026 -13.6154,-12.0706 -9.3066,-13.7588 -8.192,-28.071 h -15.5671 l -11.1048,-13.5098 -4.1148,-12.0329 v -17.7496 l -12.2401,-38.8614 -2.9478,-43.9961 -17.2901,-14.6045 -8.5364,-12.5426 -6.854,-28.3142 -12.13,-14.5321 -4.8416,-13.6662 h -14.4899 v -14.8594 l -13.1695,-38.6848 -3.3358,-44.6911 h -16.7283 l -12.8134,-15.4472 -2.5975,-11.9055 -11.7534,-13.6026 -4.196,-15.314 -17.3247,-11.0482 -16.1029,-3.704 -21.6277,-60.9609 -25.1114,-15.44716 -7.5953,-26.19144 -12.0026,-15.12583 -13.3056,-6.98522 h -6.8309 l -4.5057,-14.32933 h -15.8277 l -4.1901,-14.66253 z m 1.4942,2.96555 h 14.7882 l 4.19,14.66243 h 15.8915 l 4.5057,14.32943 h 8.2729 l 12.1068,6.35384 11.2497,14.17877 7.7517,26.73013 25.1953,15.49936 21.8219,61.5082 17.1915,3.956 15.9291,10.1562 4.0684,14.8593 11.7014,13.5418 2.5917,11.8736 14.1627,17.0748 h 15.3673 l 3.162,42.3251 13.132,38.5747 v 17.3354 h 15.3615 l 4.3175,12.1922 12.0286,14.4105 6.8193,28.1665 9.0663,13.3245 16.6387,14.0543 2.8898,43.0954 12.2082,38.763 v 17.7901 l 4.4477,13.0059 12.3356,15.0072 h 14.7448 l 7.6996,26.3825 9.7757,14.4539 13.9311,12.3485 16.986,14.1181 H 1857.24 l 7.9313,-41.3318 17.9994,-27.095 6.4342,-27.5466 h 8.9823 l 10.0915,-27.5468 11.9823,-8.161 16.1492,-20.3791 15.8944,-4.7697 15.2804,-9.1109 h 14.9416 l 24.5699,60.5207 2.2962,15.4182 15.4658,14.289 10.5316,6.3161 12.2099,14.8767 v 241.7846 H -5.090716e-7 v -239.783 L 5.4565291,1491.8468 31.972214,1508.3452 h 33.725914 l 33.517428,3.1335 29.587994,10.498 h 64.22025 l 10.25359,-28.6125 7.3666,-42.6552 v -25.5804 h 17.02654 l 6.44287,-28.8065 15.59612,-13.3014 8.98817,-14.0542 4.22768,-15.0563 11.11649,-14.3469 h 16.83834 l 14.70424,-62.3074 15.7264,-6.7274 15.30363,14.2715 h 32.94988 l 16.93679,-14.3208 3.59642,-30.0285 11.54217,-33.1072 17.08158,-7.9234 3.50086,-12.7076 10.60395,-13.7416 16.54879,-13.2289 h 17.13949 l 3.53852,13.113 h 15.17623 l 3.99313,14.4511 h 8.52487 l 4.85314,42.4872 11.11069,39.3654 v 14.1441 l 8.21215,28.876 25.31107,14.06 4.88212,27.1182 8.44668,14.8999 17.81418,14.0167 h 18.59891 l 16.68777,-13.7386 12.68594,-23.8371 15.63665,-16.9705 18.82767,-15.7166 7.29709,-13.559 14.68977,-12.282 8.82311,-15.8701 15.87988,-5.123 16.28237,-21.4507 17.66361,-3.1537 12.13577,-11.5233 h 17.42907 l 15.17332,3.0206 14.82005,10.4661 3.38215,13.0668 11.66957,13.6055 4.54331,13.6864 12.88285,14.6249 2.25574,13.2259 13.41565,15.8123 h 18.21669 l 12.40506,-27.9204 10.87037,-6.7766 12.5064,6.5739 9.9785,13.1941 8.93315,28.5807 21.6191,12.9248 7.00754,44.5956 10.62133,37.3584 v 16.6462 l 16.23893,14.3989 h 32.1478 l 19.2968,-14.813 14.3567,-14.3063 9.0808,-13.727 14.7998,-14.2107 6.5297,-13.0088 17.3799,-6.8635 6.7353,-31.3262 9.7556,-30.5788 15.7727,-6.8201 16.5806,-16.1423 16.4793,-20.4718 14.794,-28.5517 7.6562,-27.3759 15.4889,-13.6662 8.658,-15.0216 4.0974,-13.1391 10.8791,-13.1131 h 17.2437 l 15.9291,-14.3613 15.3472,-24.2164 17.0786,-17.7466 8.1368,-26.3536 7.2538,-43.5414 v -33.0376 l 4.1378,-24.86506 12.2951,-32.39178 15.1241,-7.24293 4.5404,-14.47129 z"
         id="rect3"
         sodipodi:nodetypes="cccccccccccccccccccccccccccccccccccccccccccccccccccccccccccccccccccccccccccccccccccccccccccccccccccccccccccccccccccccccccccccccccccccccccccccccccccccccccccccccccccccccccccccccccccccccccccccccccccccccccccccccccccccccccccccccccccccccccccccccccccccccccccccccccccccccccccccccccccccccccccccccccccccccccccccccccccccccccccccc" /><text
         xml:space="preserve"
         style="font-style:normal;font-variant:normal;font-weight:normal;font-stretch:normal;font-size:26.2063px;line-height:1.15;font-family:'Atari Vector';-inkscape-font-specification:'Atari Vector';font-variant-ligatures:none;text-align:center;letter-spacing:1.09193px;text-anchor:middle;fill:#e6e6e6;stroke:#e6e6e6;stroke-width:1;stroke-linecap:round;stroke-linejoin:miter;stroke-dasharray:none;stroke-opacity:1;paint-order:normal"
         x="590.88232"
         y="1411.7437"
         id="text1"
         transform="scale(0.99994352,1.0000565)"><tspan
           sodipodi:role="line"
           id="tspan1"
           x="591.42828"
           y="1411.7437"
           style="stroke-width:1;stroke-linecap:round;stroke-linejoin:miter;stroke-dasharray:none;paint-order:normal">3x</tspan></text><text
         xml:space="preserve"
         style="font-style:normal;font-variant:normal;font-weight:normal;font-stretch:normal;font-size:26.2063px;line-height:1.15;font-family:'Atari Vector';-inkscape-font-specification:'Atari Vector';font-variant-ligatures:none;text-align:center;letter-spacing:1.09193px;text-anchor:middle;fill:#e6e6e6;stroke:#e6e6e6;stroke-width:1;stroke-linecap:round;stroke-linejoin:miter;stroke-dasharray:none;stroke-opacity:1;paint-order:normal"
         x="1239.9165"
         y="1202.7288"
         id="text4"
         transform="scale(0.99994352,1.0000565)"><tspan
           sodipodi:role="line"
           id="tspan4"
           x="1240.4625"
           y="1202.7288"
           style="fill:#e6e6e6;stroke:#e6e6e6;stroke-width:1;stroke-linecap:round;stroke-linejoin:miter;stroke-dasharray:none;paint-order:normal">5x</tspan></text><text
         xml:space="preserve"
         style="font-style:normal;font-variant:normal;font-weight:normal;font-stretch:normal;font-size:26.2063px;line-height:1.15;font-family:'Atari Vector';-inkscape-font-specification:'Atari Vector';font-variant-ligatures:none;text-align:center;letter-spacing:1.09193px;text-anchor:middle;fill:#e6e6e6;stroke:#e6e6e6;stroke-width:1;stroke-linecap:round;stroke-linejoin:miter;stroke-dasharray:none;stroke-opacity:1;paint-order:normal"
         x="1792.2212"
         y="1550.3765"
         id="text11"
         transform="scale(0.99994352,1.0000565)"><tspan
           sodipodi:role="line"
           id="tspan11"
           x="1792.7672"
           y="1550.3765"
           style="stroke-width:1;stroke-linecap:round;stroke-linejoin:miter;stroke-dasharray:none;paint-order:normal">2x</tspan></text><text
         xml:space="preserve"
         style="font-style:normal;font-variant:normal;font-weight:normal;font-stretch:normal;font-size:26.2063px;line-height:1.15;font-family:'Atari Vector';-inkscape-font-specification:'Atari Vector';font-variant-ligatures:none;text-align:center;letter-spacing:1.09193px;text-anchor:middle;fill:#e6e6e6;stroke:#e6e6e6;stroke-width:1;stroke-linecap:round;stroke-linejoin:miter;stroke-dasharray:none;stroke-opacity:1;paint-order:normal"
         x="166.06155"
         y="1551.4977"
         id="text12"
         transform="scale(0.99994352,1.0000565)"><tspan
           sodipodi:role="line"
           id="tspan12"
           x="166.60751"
           y="1551.4977"
           style="stroke-width:1;stroke-linecap:round;stroke-linejoin:miter;stroke-dasharray:none;paint-order:normal">2x</tspan></text><text
         xml:space="preserve"
         style="font-style:normal;font-variant:normal;font-weight:normal;font-stretch:normal;font-size:26.2063px;line-height:1.15;font-family:'Atari Vector';-inkscape-font-specification:'Atari Vector';font-variant-ligatures:none;text-align:center;letter-spacing:1.09193px;text-anchor:middle;fill:#e6e6e6;stroke:#e6e6e6;stroke-width:1;stroke-linecap:round;stroke-linejoin:miter;stroke-dasharray:none;stroke-opacity:1;paint-order:normal"
         x="774.7691"
         y="1258.7294"
         id="text17"
         transform="scale(0.99994352,1.0000565)"><tspan
           sodipodi:role="line"
           id="tspan17"
           x="775.31506"
           y="1258.7294"
           style="fill:#e6e6e6;stroke:#e6e6e6;stroke-width:1;stroke-linecap:round;stroke-linejoin:miter;stroke-dasharray:none;paint-order:normal">4x</tspan></text><text
         xml:space="preserve"
         style="font-style:normal;font-variant:normal;font-weight:normal;font-stretch:normal;font-size:26.2063px;line-height:1.15;font-family:'Atari Vector';-inkscape-font-specification:'Atari Vector';font-variant-ligatures:none;text-align:center;letter-spacing:1.09193px;text-anchor:middle;fill:#e6e6e6;stroke:#e6e6e6;stroke-width:1;stroke-linecap:round;stroke-linejoin:miter;stroke-dasharray:none;stroke-opacity:1;paint-order:normal"
         x="861.26447"
         y="1356.3197"
         id="text18"
         transform="scale(0.99994352,1.0000565)"><tspan
           sodipodi:role="line"
           id="tspan18"
           x="861.81042"
           y="1356.3197"
           style="fill:#e6e6e6;stroke:#e6e6e6;stroke-width:1;stroke-linecap:round;stroke-linejoin:miter;stroke-dasharray:none;paint-order:normal">4x</tspan></text><text
         xml:space="preserve"
         style="font-style:normal;font-variant:normal;font-weight:normal;font-stretch:normal;font-size:26.2063px;line-height:1.15;font-family:'Atari Vector';-inkscape-font-specification:'Atari Vector';font-variant-ligatures:none;text-align:center;letter-spacing:1.09193px;text-anchor:middle;fill:#e6e6e6;stroke:#e6e6e6;stroke-width:1;stroke-linecap:round;stroke-linejoin:miter;stroke-dasharray:none;stroke-opacity:1;paint-order:normal"
         x="1989.3685"
         y="1384.4178"
         id="text19"
         transform="scale(0.99994352,1.0000565)"><tspan
           sodipodi:role="line"
           id="tspan19"
           x="1989.9146"
           y="1384.4178"
           style="fill:#e6e6e6;stroke:#e6e6e6;stroke-width:1;stroke-linecap:round;stroke-linejoin:miter;stroke-dasharray:none;paint-order:normal">5x</tspan></text><path
         style="color:#000000;fill:#e6e6e6;stroke-width:0;stroke-linecap:round;stroke-linejoin:miter;stroke-dasharray:none;paint-order:normal"
         d="m 3392.0803,917.69999 -11.629,15.70501 -4.303,13.71839 -15.0344,7.19659 -12.8191,33.77605 -4.2277,25.39797 v 33.0375 l -7.1813,43.1041 -7.8704,25.4877 -16.795,17.4571 -15.2919,24.1237 -14.7796,13.3274 h -17.4986 l -12.1416,14.6364 -4.1754,13.3853 -8.2498,14.3149 -15.7844,13.9269 -7.8067,27.9262 -14.5189,28.013 -16.181,20.101 -16.0594,15.6385 -16.5112,7.1386 -10.2102,32.0008 -6.4312,29.9157 -16.9542,6.6956 -6.8106,13.5649 -14.6695,14.0861 -9.0982,13.7502 -14.0064,13.9587 -18.3441,14.0833 h -30.0165 l -14.4002,-12.7685 v -15.7252 l -10.685,-37.5844 -7.1958,-45.7886 -21.8392,-13.0581 -8.7507,-27.9898 -10.6879,-14.1354 -14.5971,-7.6715 -13.0856,8.1552 -11.991,26.9906 H 2898.53 l -11.9996,-14.147 -2.2616,-13.255 -13.0421,-14.8043 -4.5346,-13.6662 -11.603,-13.5273 -3.4835,-13.4519 -16.2215,-11.4565 -16.0768,-3.2001 h -18.9059 l -12.35,11.7259 -17.9242,3.2001 -16.4214,21.6331 -16.1057,5.1925 -9.1243,16.4117 -14.7042,12.2964 -7.2971,13.5591 -18.5352,15.4733 -16.0276,17.3933 -12.5875,23.6517 -15.4108,12.6874 h -16.5082 l -16.5517,-13.0233 -7.9081,-13.95 -5.0442,-28.0043 -25.4617,-14.147 -7.7633,-27.2949 v -14.1411 l -11.157,-39.5304 -5.1283,-44.8765 h -8.9128 l -3.9932,-14.451 h -15.1588 l -3.5386,-13.1131 h -20.4521 l -17.6375,14.1006 -11.1802,14.4858 -3.2895,11.946 -16.9745,7.8713 -12.0604,34.5986 -3.498,29.1888 -15.2168,12.8669 h -30.697 l -15.8596,-14.7927 -18.8798,8.074 -14.5103,61.4821 h -15.9435 l -12.3617,15.954 -4.2653,15.1896 -8.5133,13.31 -16.013,13.6575 -6.1389,27.4541 h -17.6172 v 28.294 l -7.2798,42.1484 -9.463,26.4057 h -61.62 l -29.4577,-10.4488 -34.0241,-3.1827 h -33.0136 l -24.7841,-15.4213 -6.5992,-25.9017 -1.4374,0.1061 v 243.8388 h 2048.0001 v 0 -246.0771 l -10.2264,-12.8517 -10.7285,-6.435 -14.4755,-13.3708 -2.1919,-14.7377 -25.4559,-62.6984 h -17.7535 l -15.6656,9.3395 -16.4387,4.9319 -16.4446,20.7557 -12.3991,8.4447 -9.7035,26.4955 h -9.2662 l -6.8453,29.3163 -18.0343,27.1471 -7.5809,39.51 h -125.814 l -16.1262,-13.4026 -13.6154,-12.0706 -9.3066,-13.7588 -8.1919,-28.071 h -15.5671 l -11.1049,-13.5098 -4.1147,-12.0329 v -17.7496 l -12.2402,-38.8614 -2.9478,-43.9961 -17.29,-14.6045 -8.5365,-12.5426 -6.854,-28.3142 -12.13,-14.5321 -4.8416,-13.6662 h -14.4899 v -14.8594 l -13.1694,-38.6848 -3.3358,-44.6911 h -16.7284 l -12.8134,-15.4472 -2.5975,-11.9055 -11.7534,-13.6026 -4.1959,-15.314 -17.3247,-11.0482 -16.103,-3.704 -21.6277,-60.9609 -25.1113,-15.44716 -7.5954,-26.19144 -12.0025,-15.12583 -13.3057,-6.98522 h -6.8309 l -4.5056,-14.32933 h -15.8278 l -4.19,-14.66253 z m 1.4941,2.96555 h 14.7882 l 4.1901,14.66243 h 15.8915 l 4.5056,14.32943 h 8.273 l 12.1067,6.35384 11.2498,14.17877 7.7516,26.73013 25.1953,15.49936 21.8219,61.5082 17.1916,3.956 15.929,10.1562 4.0685,14.8593 11.7014,13.5418 2.5917,11.8736 14.1626,17.0748 h 15.3673 l 3.162,42.3251 13.1321,38.5747 v 17.3354 h 15.3615 l 4.3174,12.1922 12.0287,14.4105 6.8193,28.1665 9.0663,13.3245 16.6386,14.0543 2.8899,43.0954 12.2081,38.763 v 17.7901 l 4.4478,13.0059 12.3355,15.0072 h 14.7448 l 7.6997,26.3825 9.7757,14.4539 13.9311,12.3485 16.9859,14.1181 h 129.3355 l 7.9312,-41.3318 17.9994,-27.095 6.4342,-27.5466 h 8.9824 l 10.0915,-27.5468 11.9822,-8.161 16.1493,-20.3791 15.8943,-4.7697 15.2805,-9.1109 h 14.9415 l 24.5699,60.5207 2.2963,15.4182 15.4658,14.289 10.5315,6.3161 12.21,14.8767 v 241.7846 H 2048 v -239.783 l 5.4566,23.6282 26.5157,16.4984 h 33.7259 l 33.5174,3.1335 29.588,10.498 h 64.2202 l 10.2536,-28.6125 7.3666,-42.6552 v -25.5804 h 17.0266 l 6.4428,-28.8065 15.5962,-13.3014 8.9881,-14.0542 4.2277,-15.0563 11.1165,-14.3469 h 16.8383 l 14.7043,-62.3074 15.7264,-6.7274 15.3036,14.2715 h 32.9499 l 16.9368,-14.3208 3.5964,-30.0285 11.5422,-33.1072 17.0816,-7.9234 3.5008,-12.7076 10.604,-13.7416 16.5488,-13.2289 h 17.1394 l 3.5386,13.113 h 15.1762 l 3.9931,14.4511 h 8.5249 l 4.8531,42.4872 11.1107,39.3654 v 14.1441 l 8.2122,28.876 25.311,14.06 4.8822,27.1182 8.4466,14.8999 17.8142,14.0167 h 18.5989 l 16.6878,-13.7386 12.6859,-23.8371 15.6367,-16.9705 18.8277,-15.7166 7.2971,-13.559 14.6897,-12.282 8.8231,-15.8701 15.8799,-5.123 16.2824,-21.4507 17.6636,-3.1537 12.1358,-11.5233 h 17.429 l 15.1734,3.0206 14.82,10.4661 3.3822,13.0668 11.6695,13.6055 4.5433,13.6864 12.8829,14.6249 2.2557,13.2259 13.4157,15.8123 h 18.2167 l 12.405,-27.9204 10.8704,-6.7766 12.5064,6.5739 9.9785,13.1941 8.9331,28.5807 21.6191,12.9248 7.0076,44.5956 10.6213,37.3584 v 16.6462 l 16.2389,14.3989 h 32.1478 l 19.2968,-14.813 14.3568,-14.3063 9.0808,-13.727 14.7998,-14.2107 6.5297,-13.0088 17.3799,-6.8635 6.7353,-31.3262 9.7555,-30.5788 15.7727,-6.8201 16.5807,-16.1423 16.4792,-20.4718 14.7941,-28.5517 7.6561,-27.3759 15.4889,-13.6662 8.6581,-15.0216 4.0974,-13.1391 10.8791,-13.1131 h 17.2437 l 15.9291,-14.3613 15.3471,-24.2164 17.0787,-17.7466 8.1367,-26.3536 7.2538,-43.5414 v -33.0376 l 4.1378,-24.86506 12.2951,-32.39178 15.1241,-7.24293 4.5405,-14.47129 z"
         id="path51"
         sodipodi:nodetypes="cccccccccccccccccccccccccccccccccccccccccccccccccccccccccccccccccccccccccccccccccccccccccccccccccccccccccccccccccccccccccccccccccccccccccccccccccccccccccccccccccccccccccccccccccccccccccccccccccccccccccccccccccccccccccccccccccccccccccccccccccccccccccccccccccccccccccccccccccccccccccccccccccccccccccccccccccccccccccccccc" /><text
         xml:space="preserve"
         style="font-style:normal;font-variant:normal;font-weight:normal;font-stretch:normal;font-size:26.2063px;line-height:1.15;font-family:'Atari Vector';-inkscape-font-specification:'Atari Vector';font-variant-ligatures:none;text-align:center;letter-spacing:1.09193px;text-anchor:middle;fill:#e6e6e6;stroke:#e6e6e6;stroke-width:1;stroke-linecap:round;stroke-linejoin:miter;stroke-dasharray:none;stroke-opacity:1;paint-order:normal"
         x="2638.998"
         y="1411.7437"
         id="text51"
         transform="scale(0.99994352,1.0000565)"><tspan
           sodipodi:role="line"
           id="tspan51"
           x="2639.5439"
           y="1411.7437"
           style="stroke-width:1;stroke-linecap:round;stroke-linejoin:miter;stroke-dasharray:none;paint-order:normal">3x</tspan></text><text
         xml:space="preserve"
         style="font-style:normal;font-variant:normal;font-weight:normal;font-stretch:normal;font-size:26.2063px;line-height:1.15;font-family:'Atari Vector';-inkscape-font-specification:'Atari Vector';font-variant-ligatures:none;text-align:center;letter-spacing:1.09193px;text-anchor:middle;fill:#e6e6e6;stroke:#e6e6e6;stroke-width:1;stroke-linecap:round;stroke-linejoin:miter;stroke-dasharray:none;stroke-opacity:1;paint-order:normal"
         x="3288.0322"
         y="1202.7288"
         id="text52"
         transform="scale(0.99994352,1.0000565)"><tspan
           sodipodi:role="line"
           id="tspan52"
           x="3288.5781"
           y="1202.7288"
           style="fill:#e6e6e6;stroke:#e6e6e6;stroke-width:1;stroke-linecap:round;stroke-linejoin:miter;stroke-dasharray:none;paint-order:normal">5x</tspan></text><text
         xml:space="preserve"
         style="font-style:normal;font-variant:normal;font-weight:normal;font-stretch:normal;font-size:26.2063px;line-height:1.15;font-family:'Atari Vector';-inkscape-font-specification:'Atari Vector';font-variant-ligatures:none;text-align:center;letter-spacing:1.09193px;text-anchor:middle;fill:#e6e6e6;stroke:#e6e6e6;stroke-width:1;stroke-linecap:round;stroke-linejoin:miter;stroke-dasharray:none;stroke-opacity:1;paint-order:normal"
         x="3840.3369"
         y="1550.3765"
         id="text53"
         transform="scale(0.99994352,1.0000565)"><tspan
           sodipodi:role="line"
           id="tspan53"
           x="3840.8828"
           y="1550.3765"
           style="stroke-width:1;stroke-linecap:round;stroke-linejoin:miter;stroke-dasharray:none;paint-order:normal">2x</tspan></text><text
         xml:space="preserve"
         style="font-style:normal;font-variant:normal;font-weight:normal;font-stretch:normal;font-size:26.2063px;line-height:1.15;font-family:'Atari Vector';-inkscape-font-specification:'Atari Vector';font-variant-ligatures:none;text-align:center;letter-spacing:1.09193px;text-anchor:middle;fill:#e6e6e6;stroke:#e6e6e6;stroke-width:1;stroke-linecap:round;stroke-linejoin:miter;stroke-dasharray:none;stroke-opacity:1;paint-order:normal"
         x="2214.1772"
         y="1551.4977"
         id="text54"
         transform="scale(0.99994352,1.0000565)"><tspan
           sodipodi:role="line"
           id="tspan54"
           x="2214.7231"
           y="1551.4977"
           style="stroke-width:1;stroke-linecap:round;stroke-linejoin:miter;stroke-dasharray:none;paint-order:normal">2x</tspan></text><text
         xml:space="preserve"
         style="font-style:normal;font-variant:normal;font-weight:normal;font-stretch:normal;font-size:26.2063px;line-height:1.15;font-family:'Atari Vector';-inkscape-font-specification:'Atari Vector';font-variant-ligatures:none;text-align:center;letter-spacing:1.09193px;text-anchor:middle;fill:#e6e6e6;stroke:#e6e6e6;stroke-width:1;stroke-linecap:round;stroke-linejoin:miter;stroke-dasharray:none;stroke-opacity:1;paint-order:normal"
         x="2822.8848"
         y="1258.7294"
         id="text55"
         transform="scale(0.99994352,1.0000565)"><tspan
           sodipodi:role="line"
           id="tspan55"
           x="2823.4307"
           y="1258.7294"
           style="fill:#e6e6e6;stroke:#e6e6e6;stroke-width:1;stroke-linecap:round;stroke-linejoin:miter;stroke-dasharray:none;paint-order:normal">4x</tspan></text><text
         xml:space="preserve"
         style="font-style:normal;font-variant:normal;font-weight:normal;font-stretch:normal;font-size:26.2063px;line-height:1.15;font-family:'Atari Vector';-inkscape-font-specification:'Atari Vector';font-variant-ligatures:none;text-align:center;letter-spacing:1.09193px;text-anchor:middle;fill:#e6e6e6;stroke:#e6e6e6;stroke-width:1;stroke-linecap:round;stroke-linejoin:miter;stroke-dasharray:none;stroke-opacity:1;paint-order:normal"
         x="2909.3801"
         y="1356.3197"
         id="text56"
         transform="scale(0.99994352,1.0000565)"><tspan
           sodipodi:role="line"
           id="tspan56"
           x="2909.926"
           y="1356.3197"
           style="fill:#e6e6e6;stroke:#e6e6e6;stroke-width:1;stroke-linecap:round;stroke-linejoin:miter;stroke-dasharray:none;paint-order:normal">4x</tspan></text><text
         xml:space="preserve"
         style="font-style:normal;font-variant:normal;font-weight:normal;font-stretch:normal;font-size:26.2063px;line-height:1.15;font-family:'Atari Vector';-inkscape-font-specification:'Atari Vector';font-variant-ligatures:none;text-align:center;letter-spacing:1.09193px;text-anchor:middle;fill:#e6e6e6;stroke:#e6e6e6;stroke-width:1;stroke-linecap:round;stroke-linejoin:miter;stroke-dasharray:none;stroke-opacity:1;paint-order:normal"
         x="4037.4841"
         y="1384.4178"
         id="text57"
         transform="scale(0.99994352,1.0000565)"><tspan
           sodipodi:role="line"
           id="tspan57"
           x="4038.03"
           y="1384.4178"
           style="fill:#e6e6e6;stroke:#e6e6e6;stroke-width:1;stroke-linecap:round;stroke-linejoin:miter;stroke-dasharray:none;paint-order:normal">5x</tspan></text></g></g></svg>
